<?xml version="1.0" encoding="utf-8"?>
<!-- Generator: Adobe Illustrator 15.0.0, SVG Export Plug-In . SVG Version: 6.00 Build 0)  -->
<!DOCTYPE svg PUBLIC "-//W3C//DTD SVG 1.1//EN" "http://www.w3.org/Graphics/SVG/1.1/DTD/svg11.dtd">
<svg version="1.1" id="logo_negro_barra_rayas" xmlns="http://www.w3.org/2000/svg" xmlns:xlink="http://www.w3.org/1999/xlink"
	 x="0px" y="0px" width="46px" height="46px" viewBox="0 0 338.782 338.781" enable-background="new 0 0 338.782 338.781"
	 xml:space="preserve">
<path fill="#333333" d="M152.924,74.938V54.135l32.865-8.917v20.803L152.924,74.938z M152.924,111.888l32.865-8.917V82.453l-32.865,8.917V111.888z
	 M185.79,119.403l-32.865,8.917v6.688h-27.882v15.208c0,11.968,9.476,21.666,21.163,21.666h46.566
	c11.688,0,21.162-9.698,21.162-21.666v-15.208H185.79V119.403z M338.782,169.393c0,93.555-75.844,169.388-169.392,169.388
	C75.844,338.781,0,262.948,0,169.393C0,75.841,75.844,0,169.39,0C262.938,0,338.782,75.841,338.782,169.393z M83.783,245.242
	l41.262,5.328c7.852,1.013,15.039-4.532,16.053-12.382c1.013-7.852-4.531-15.04-12.381-16.053l-41.263-5.328
	c-7.851-1.012-15.038,4.531-16.053,12.384C70.389,237.041,75.932,244.228,83.783,245.242z M142.085,286.919h-5.637
	c-6.879,0-12.455,5.445-12.455,12.165c0,6.717,4.715,10.272,14.072,12.761c1.342,0.356,2.682,0.688,4.02,0.999V286.919z
	 M179.101,286.919h-9.656h-0.088h-9.791v28.698c3.268,0.285,6.531,0.457,9.791,0.485v0.002c0.014,0,0.029,0,0.044,0
	c0.014,0,0.029,0,0.044,0v-0.002c3.215-0.028,6.432-0.196,9.656-0.475V286.919z M214.809,299.084c0-6.72-5.577-12.165-12.455-12.165
	h-5.771v25.953c1.382-0.319,2.767-0.659,4.154-1.027C210.094,309.357,214.809,305.801,214.809,299.084z M267.137,229.017
	c-1.014-7.853-8.2-13.396-16.053-12.384l-41.262,5.328c-7.852,1.012-13.395,8.2-12.382,16.053
	c1.014,7.85,8.201,13.394,16.053,12.382l41.263-5.328C262.608,244.053,268.152,236.867,267.137,229.017z M289.973,84.75
	c-23.698-33.697-61.134-57.013-104.184-61.783v5.818l-32.865,8.917V22.976C110.052,27.746,72.754,50.91,49.057,84.4h22.242
	c21.862,0,39.584,17.721,39.584,39.583v16.793c0.011,0,0.023,0,0.035,0v6.144c0,21.86,17.72,39.583,39.583,39.583h37.782
	c21.629,0,39.177-17.354,39.55-38.893v-23.277c0-21.862,17.72-39.583,39.582-39.583H289.973z"/>
</svg>
