<?xml version="1.0" encoding="utf-8"?>
<!DOCTYPE svg PUBLIC "-//W3C//DTD SVG 1.1//EN" "http://www.w3.org/Graphics/SVG/1.1/DTD/svg11.dtd">
<svg version="1.1" id="Layer_1" xmlns="http://www.w3.org/2000/svg" xmlns:xlink="http://www.w3.org/1999/xlink" x="0px" y="0px"
	 width="15px" height="15px" viewBox="0 0 15 15" enable-background="new 0 0 15 15" xml:space="preserve">
<path fill="#FFFFFF" d="M12.549,12.356c0,0.445-0.182,0.827-0.543,1.145c-0.361,0.318-0.795,0.478-1.301,0.478H7.061
	c-1.519,0-2.817-0.475-3.894-1.423C2.088,11.606,1.55,10.464,1.55,9.127V2.624c0-0.458,0.18-0.844,0.538-1.155
	C2.447,1.156,2.886,1,3.403,1c0.503,0,0.935,0.159,1.293,0.478c0.359,0.317,0.539,0.699,0.539,1.146v2.273h5.189
	c0.471,0,0.875,0.147,1.211,0.442c0.338,0.295,0.506,0.648,0.506,1.062c0,0.412-0.168,0.767-0.504,1.062
	c-0.336,0.294-0.738,0.441-1.207,0.441H5.235v1.221c0,0.447,0.177,0.827,0.532,1.14c0.354,0.312,0.785,0.469,1.292,0.469h3.646
	c0.504,0,0.939,0.16,1.301,0.478C12.367,11.529,12.549,11.911,12.549,12.356z"/>
</svg>
